:SAMPLES-PER-SECOND 30
:FULLY-SPECIFIED
:DEGREES
140
root  69.2758 37.3837 1.87326 -139.256 79.5847 -134.021
RightUpLeg  -21.7944 6.22165 9.00425
RightLeg  22.2956 1.32054 -3.59421
RightFoot  3.78191 0.396908 -2.72036
RightToes  -4.65663e-010 -1.59028e-015 9.93923e-017
Spine  5.22794 -5.71928 1.01231
Spine1  8.33121 -7.90991 10.6617
HEad  -19.9846 4.0127 2.07618
LeftShoulder1  9.93923e-017 0 1.22299e-017
LeftArm  13.8634 16.7871 -85.0458
LeftForeArm  -33.9964 -31.3439 20.6016
LeftHand  0.642903 4.93064 2.51399
RightShoulder  1.98785e-016 -4.96962e-017 1.55301e-017
RightArm  -4.48018 -56.2424 74.2418
RightForeArm  -9.66669 9.15387 4.84948
RightHand  1.44444 -12.6114 -5.02289
LeftUpLeg  10.9923 -8.11387 11.7882
LeftLeg  39.8198 -8.7276 1.93965
LeftFoot  20.211 2.21366 -7.20691
LeftToes  3.34876e-009 -9.68256e-011 -6.12847e-011
141
root  70.8637 37.3923 2.01032 -138.264 78.6008 -132.648
RightUpLeg  -20.0044 5.37081 10.7765
RightLeg  25.0418 1.42923 -4.11868
RightFoot  -0.267711 0.402435 -3.55937
RightToes  -4.65663e-010 -1.59028e-015 9.93923e-017
Spine  5.62958 -5.5587 2.39603
Spine1  8.56465 -7.45237 11.1775
HEad  -19.4343 2.89472 2.55475
LeftShoulder1  9.93923e-017 0 1.22299e-017
LeftArm  15.7276 19.7525 -86.8783
LeftForeArm  -33.3245 -24.33 12.4298
LeftHand  0.684547 4.93758 0.442608
RightShoulder  1.98785e-016 -4.96962e-017 1.55301e-017
RightArm  -6.25596 -49.9006 78.7976
RightForeArm  -10.3543 9.76776 4.46036
RightHand  1.47755 -12.4907 -5.93598
LeftUpLeg  5.26414 -9.33387 12.3612
LeftLeg  48.8268 -7.50452 4.96187
LeftFoot  26.3073 2.05628 -5.46247
LeftToes  3.34876e-009 -9.68256e-011 -6.12847e-011
142
root  72.5659 37.7239 2.116 -139.853 78.6523 -134.152
RightUpLeg  -16.5981 5.38122 11.302
RightLeg  24.5296 0.94021 -4.25177
RightFoot  -2.6046 0.329405 -3.5696
RightToes  -4.65663e-010 -1.59028e-015 9.93923e-017
Spine  5.02194 -5.11884 2.6579
Spine1  8.88897 -6.8204 10.8874
HEad  -18.506 1.85551 2.97623
LeftShoulder1  9.93923e-017 0 1.22299e-017
LeftArm  -1.779 22.9214 -86.5418
LeftForeArm  -12.9884 -14.0104 -1.04533
LeftHand  0.792695 5.3745 -2.46448
RightShoulder  1.98785e-016 -4.96962e-017 1.55301e-017
RightArm  -2.22929 -43.626 82.458
RightForeArm  -16.4282 12.8151 1.85707
RightHand  1.57383 -12.4944 -7.68022
LeftUpLeg  -0.450926 -10.0301 11.3277
LeftLeg  55.0813 -7.23617 7.16587
LeftFoot  25.1374 1.53376 -4.15206
LeftToes  3.34876e-009 -9.68256e-011 -6.12847e-011
143
root  74.3187 38.168 2.18624 -141.553 79.6941 -135.919
RightUpLeg  -12.6353 6.28093 11.1237
RightLeg  22.6083 0.232045 -4.18728
RightFoot  -4.23172 0.292115 -3.76114
RightToes  -4.65663e-010 -1.59028e-015 9.93923e-017
Spine  4.09554 -4.3731 2.8058
Spine1  9.05814 -5.70268 9.47659
HEad  -17.4142 0.939314 3.29553
LeftShoulder1  9.93923e-017 0 1.22299e-017
LeftArm  -11.8812 27.1827 -85.4708
LeftForeArm  -0.689243 -5.47529 -6.33693
LeftHand  0.927665 6.3481 -5.17023
RightShoulder  1.98785e-016 -4.96962e-017 1.55301e-017
RightArm  8.07592 -38.0199 85.583
RightForeArm  -29.0092 17.086 -4.52272
RightHand  1.63865 -12.4584 -8.96405
LeftUpLeg  -5.68446 -10.1053 9.31199
LeftLeg  58.2141 -7.94348 7.0668
LeftFoot  20.3655 1.15498 -3.59311
LeftToes  3.34876e-009 -9.68256e-011 -6.12847e-011
